# xmcd
#
# Track frame offsets: 
#        150
#        16730
#        30735
#        45482
#        60707
#        74815
#        88097
#        117152
#        131845
#        149150
#        162817
#
# Disc length: 2357 seconds
#
# Revision: 2
# Processed by: cddbd v1.5.2PL0 Copyright (c) Steve Scherf et al.
# Submitted via: ExactAudioCopy v1.0b3
#
DISCID=9f09330b
DTITLE=Νίκος Ξυλούρης - Περήφανη ράτσα
DYEAR=1973
DGENRE=Grèce
TTITLE0=Σαν έρθουνε μάνα οι φίλοι μου
TTITLE1=Εγώ είμαι του μπαξέ το πουλί
TTITLE2=Κρύψε το μυστικό σου
TTITLE3=Μην περιμένεις τον καιρό
TTITLE4=Έφυγες δίχως αφορμή
TTITLE5=Ιντα έχετε γύρου γύρου
TTITLE6=Εις του βάρσαμου το νερό
TTITLE7=Ζήσω πεθάνω στη ζωή
TTITLE8=Όσο βαρούν τα σιδερά
TTITLE9=Όλα σου είναι όμορφα
TTITLE10=Η κακόμοιρα η μάνα μου
EXTD=
EXTT0=
EXTT1=
EXTT2=
EXTT3=
EXTT4=
EXTT5=
EXTT6=
EXTT7=
EXTT8=
EXTT9=
EXTT10=
PLAYORDER=
